ply
format ascii 1.0
comment Created by Blender 2.80 (sub 75) - www.blender.org, source file: 'champi.blend'
element vertex 332
property float x
property float y
property float z
property float nx
property float ny
property float nz
property uchar red
property uchar green
property uchar blue
property uchar alpha
element face 660
property list uchar uint vertex_indices
end_header
-0.850649 0.447220 0.276388 -0.850642 0.447218 0.276376 189 0 5 255
-0.675323 0.486478 0.482289 -0.702017 0.505722 0.501358 189 0 5 255
-0.616881 0.607870 0.375678 -0.628407 0.661672 0.408918 189 0 5 255
-0.675322 0.648937 0.219422 -0.702017 0.674612 0.228095 189 0 5 255
-0.499997 0.525736 0.688189 -0.499985 0.525712 0.688162 189 0 5 255
-0.499996 0.688195 0.425323 -0.498764 0.737266 0.455641 189 0 5 255
-0.499995 0.850654 0.162456 -0.499985 0.850642 0.162450 189 175 135 255
-0.525725 0.447220 -0.723607 -0.525712 0.447188 -0.723594 189 175 135 255
-0.667369 0.486479 -0.493238 -0.693747 0.505722 -0.512742 189 0 5 255
-0.547916 0.607870 -0.470600 -0.583117 0.661672 -0.471297 189 0 5 255
-0.417368 0.648937 -0.574465 -0.433882 0.674612 -0.597186 189 0 5 255
-0.809012 0.525738 -0.262869 -0.808985 0.525712 -0.262856 189 0 5 255
-0.559012 0.688196 -0.344096 -0.587481 0.737266 -0.333537 189 0 5 255
-0.309011 0.850654 -0.425323 -0.309000 0.850642 -0.425306 189 0 5 255
0.525725 0.447220 -0.723607 0.525712 0.447188 -0.723594 189 175 135 255
0.262863 0.486478 -0.787128 0.273263 0.505722 -0.818262 189 0 5 255
0.278246 0.607870 -0.666526 0.268014 0.661672 -0.700217 189 0 5 255
0.417368 0.648937 -0.574465 0.433882 0.674612 -0.597186 189 0 5 255
0.000000 0.525736 -0.850648 0.000000 0.525712 -0.850642 189 0 5 255
0.154506 0.688195 -0.637985 0.135685 0.737266 -0.661794 189 0 5 255
0.309011 0.850654 -0.425323 0.309000 0.850642 -0.425306 189 175 135 255
0.850649 0.447220 0.276388 0.850642 0.447218 0.276376 189 175 135 255
0.829831 0.486479 0.006760 0.862636 0.505722 0.007019 189 0 5 255
0.719885 0.607871 0.058658 0.748772 0.661672 0.038514 189 0 5 255
0.675322 0.648937 0.219422 0.702017 0.674612 0.228095 189 0 5 255
0.809012 0.525738 -0.262869 0.808985 0.525712 -0.262856 189 0 5 255
0.654504 0.688196 -0.050207 0.671346 0.737266 -0.075442 189 0 5 255
0.499995 0.850654 0.162456 0.499985 0.850642 0.162450 189 0 5 255
0.000000 0.447216 0.894426 0.000000 0.447188 0.894406 189 175 135 255
0.249998 0.486476 0.791308 0.259865 0.505722 0.822596 189 0 5 255
0.166666 0.607868 0.702782 0.194708 0.661672 0.724021 189 0 5 255
0.000000 0.648934 0.710078 0.000000 0.674581 0.738151 189 0 5 255
0.499997 0.525736 0.688189 0.499985 0.525712 0.688162 189 0 5 255
0.249998 0.688194 0.606960 0.279214 0.737266 0.615162 189 0 5 255
0.000000 0.850652 0.525730 0.000000 0.850642 0.525712 189 0 5 255
0.249998 0.850653 0.344093 0.279214 0.879940 0.384320 189 175 135 255
0.166665 0.900436 0.229395 0.194708 0.943510 0.268014 189 0 5 255
0.000000 0.925326 0.262865 0.000000 0.961913 0.273263 189 0 5 255
0.249998 0.925327 0.081228 0.259865 0.961913 0.084414 189 0 5 255
0.000000 1.000000 0.000000 0.000000 1.000000 0.000000 189 0 5 255
0.333331 0.742348 0.458792 0.356792 0.794641 0.491104 189 0 5 255
0.499996 0.688195 0.425323 0.498764 0.737266 0.455641 189 0 5 255
0.675323 0.486478 0.482289 0.702017 0.505722 0.501358 189 0 5 255
0.616881 0.607870 0.375678 0.628407 0.661672 0.408918 189 0 5 255
0.404503 0.850654 -0.131434 0.451796 0.879940 -0.146794 189 0 5 255
0.269669 0.900436 -0.087622 0.315073 0.943510 -0.102359 189 0 5 255
0.154506 0.925327 -0.212661 0.160619 0.961913 -0.221046 189 0 5 255
0.539339 0.742349 -0.175245 0.577319 0.794641 -0.187567 189 0 5 255
0.559012 0.688196 -0.344096 0.587481 0.737266 -0.333537 189 0 5 255
0.667369 0.486479 -0.493238 0.693747 0.505722 -0.512742 189 0 5 255
0.547916 0.607871 -0.470600 0.583117 0.661672 -0.471297 189 0 5 255
0.000000 0.850654 -0.425323 0.000000 0.879940 -0.475021 189 0 5 255
0.000000 0.900436 -0.283549 0.000000 0.943510 -0.331278 189 0 5 255
-0.154506 0.925327 -0.212661 -0.160619 0.961913 -0.221046 189 0 5 255
0.000000 0.742348 -0.567098 0.000000 0.794641 -0.607044 189 0 5 255
-0.154506 0.688195 -0.637985 -0.135685 0.737266 -0.661794 189 0 5 255
-0.262863 0.486478 -0.787128 -0.273263 0.505722 -0.818262 189 0 5 255
-0.278246 0.607870 -0.666526 -0.268014 0.661672 -0.700217 189 0 5 255
-0.404503 0.850654 -0.131434 -0.451796 0.879940 -0.146794 189 0 5 255
-0.269669 0.900436 -0.087622 -0.315073 0.943510 -0.102359 189 0 5 255
-0.249998 0.925327 0.081228 -0.259865 0.961913 0.084414 189 0 5 255
-0.539339 0.742349 -0.175245 -0.577319 0.794641 -0.187567 189 0 5 255
-0.654504 0.688196 -0.050207 -0.671346 0.737266 -0.075442 189 0 5 255
-0.829830 0.486479 0.006760 -0.862636 0.505722 0.007019 189 0 5 255
-0.719885 0.607871 0.058658 -0.748772 0.661672 0.038514 189 0 5 255
-0.249998 0.850653 0.344093 -0.279214 0.879940 0.384320 189 0 5 255
-0.166665 0.900436 0.229395 -0.194708 0.943510 0.268014 189 0 5 255
-0.333331 0.742347 0.458792 -0.356792 0.794641 0.491104 189 0 5 255
-0.249998 0.688194 0.606960 -0.279214 0.737266 0.615162 189 0 5 255
-0.249998 0.486476 0.791308 -0.259865 0.505722 0.822596 189 0 5 255
-0.166666 0.607868 0.702782 -0.194708 0.661672 0.724021 189 0 5 255
0.309013 0.000000 0.951058 0.269509 -0.555101 0.786859 189 0 5 255
0.404505 0.262868 0.819624 0.451796 0.262215 0.852687 189 0 5 255
0.269670 0.324317 0.844558 0.315073 0.330363 0.889676 189 0 5 255
0.154506 0.223608 0.922742 0.160619 0.232429 0.959227 189 0 5 255
0.559015 0.000000 0.769422 0.452925 -0.637318 0.623402 189 0 5 255
0.539342 0.175245 0.742344 0.577319 0.187567 0.794641 189 0 5 255
0.809017 0.000000 0.587786 0.665059 -0.555101 0.499496 189 175 135 255
0.654507 0.262868 0.637988 0.671346 0.262215 0.693167 189 0 5 255
0.829833 0.223610 0.432087 0.862667 0.232429 0.449171 189 0 5 255
0.719888 0.324319 0.517454 0.748772 0.330363 0.574572 189 0 5 255
1.000000 0.000000 0.000000 0.831660 -0.555101 -0.013184 189 0 5 255
0.904506 0.262869 -0.131434 0.950560 0.262215 -0.166173 189 0 5 255
0.886554 0.324319 0.004506 0.943510 0.330363 -0.024720 189 0 5 255
0.925325 0.223610 0.138194 0.961913 0.232429 0.143651 189 0 5 255
0.904508 0.000000 -0.293893 0.732841 -0.637318 -0.238105 189 0 5 255
0.872676 0.175246 -0.283552 0.934172 0.187597 -0.303507 189 0 5 255
0.809017 0.000000 -0.587786 0.680563 -0.555101 -0.478164 189 0 5 255
0.809014 0.262869 -0.425327 0.866695 0.262215 -0.424268 189 0 5 255
0.667371 0.223610 -0.655697 0.693777 0.232429 -0.681631 189 0 5 255
0.714585 0.324319 -0.524754 0.777856 0.330363 -0.534562 189 0 5 255
0.309013 0.000000 -0.951058 0.244453 -0.555101 -0.795038 189 0 5 255
0.154506 0.262868 -0.900853 0.135685 0.262215 -0.955412 189 0 5 255
0.278246 0.324319 -0.841771 0.268014 0.330363 -0.904965 189 0 5 255
0.417369 0.223610 -0.837333 0.433882 0.232429 -0.870449 189 0 5 255
0.000000 0.000000 -0.951058 0.000000 -0.637318 -0.770562 189 0 5 255
0.000000 0.175245 -0.917588 0.000000 0.187597 -0.982238 189 0 5 255
-0.309013 0.000000 -0.951058 -0.244453 -0.555101 -0.795038 189 0 5 255
-0.154506 0.262868 -0.900853 -0.135685 0.262215 -0.955412 189 0 5 255
-0.417369 0.223610 -0.837333 -0.433882 0.232429 -0.870449 189 0 5 255
-0.278246 0.324319 -0.841771 -0.268014 0.330363 -0.904965 189 0 5 255
-0.809017 0.000000 -0.587786 -0.680563 -0.555101 -0.478164 189 0 5 255
-0.809014 0.262869 -0.425327 -0.866695 0.262215 -0.424268 189 0 5 255
-0.714585 0.324319 -0.524754 -0.777856 0.330363 -0.534562 189 0 5 255
-0.667371 0.223610 -0.655697 -0.693777 0.232429 -0.681631 189 0 5 255
-0.904508 0.000000 -0.293893 -0.732841 -0.637318 -0.238105 189 0 5 255
-0.872676 0.175246 -0.283552 -0.934172 0.187597 -0.303507 189 0 5 255
-1.000000 0.000000 0.000000 -0.831660 -0.555101 -0.013184 189 0 5 255
-0.904506 0.262869 -0.131434 -0.950560 0.262215 -0.166173 189 175 135 255
-0.925325 0.223610 0.138194 -0.961913 0.232429 0.143651 189 0 5 255
-0.886554 0.324319 0.004506 -0.943510 0.330363 -0.024720 189 0 5 255
-0.809017 0.000000 0.587786 -0.665059 -0.555101 0.499496 189 175 135 255
-0.654507 0.262868 0.637988 -0.671346 0.262215 0.693167 189 0 5 255
-0.719888 0.324319 0.517454 -0.748772 0.330363 0.574572 189 0 5 255
-0.829833 0.223610 0.432087 -0.862667 0.232429 0.449171 189 0 5 255
-0.559015 0.000000 0.769422 -0.452925 -0.637318 0.623402 189 0 5 255
-0.539342 0.175245 0.742344 -0.577319 0.187567 0.794641 189 0 5 255
-0.309013 0.000000 0.951058 -0.269509 -0.555101 0.786859 189 0 5 255
-0.404505 0.262868 0.819624 -0.451796 0.262215 0.852687 189 0 5 255
-0.154506 0.223608 0.922742 -0.160619 0.232429 0.959227 189 0 5 255
-0.269670 0.324317 0.844558 -0.315073 0.330363 0.889676 189 0 5 255
0.904508 0.000000 0.293893 0.713462 -0.661184 0.231819 189 0 5 255
0.886555 0.149073 0.288058 0.943510 0.125614 0.306558 189 0 5 255
-0.532596 0.000000 0.750227 0.000000 -1.000000 0.000000 189 88 70 255
-0.451341 0.000000 0.796466 0.000000 -1.000000 0.000000 189 117 92 255
-0.298922 0.000000 0.920000 0.000000 -1.000000 0.000000 189 88 70 255
-0.756179 0.000000 0.549397 0.000000 -0.999969 0.000000 189 175 135 255
-0.522505 0.000000 0.719170 0.000000 -1.000000 0.000000 189 175 135 255
-0.288831 0.000000 0.888943 0.000000 -1.000000 0.000000 189 175 135 255
0.559015 0.000000 -0.769422 0.440931 -0.661184 -0.606922 189 0 5 255
0.547918 0.149073 -0.754150 0.583117 0.125614 -0.802606 189 0 5 255
-0.432922 0.000000 0.443459 0.000000 -1.000000 0.000000 189 175 135 255
-0.384892 0.000000 0.591954 0.000000 -1.000000 0.000000 189 175 135 255
-0.109666 0.000000 0.337522 -0.191931 -0.783685 0.590716 189 175 135 255
-0.199248 0.000000 0.613232 0.000000 -1.000000 0.000000 189 175 135 255
-0.559015 0.000000 -0.769422 -0.440931 -0.661184 -0.606922 189 0 5 255
-0.547918 0.149073 -0.754150 -0.583117 0.125614 -0.802606 189 0 5 255
-0.010091 0.000000 0.920001 0.000000 -0.999969 0.000000 189 88 70 255
0.096277 0.000000 0.930353 0.000000 -1.000000 0.000000 189 58 48 255
0.000000 0.000000 0.951058 0.000000 -0.661184 0.750206 189 0 5 255
0.288831 0.000000 0.888943 0.000000 -1.000000 0.000000 189 175 135 255
0.298922 0.000000 0.920000 0.000000 -1.000000 0.000000 189 88 70 255
-0.904508 0.000000 0.293893 -0.713462 -0.661184 0.231819 189 0 5 255
-0.886555 0.149073 0.288058 -0.943510 0.125614 0.306558 189 0 5 255
0.878089 0.000000 -0.274698 0.000000 -1.000000 0.000000 189 83 67 255
0.855065 0.000000 -0.379061 0.000000 -1.000000 0.000000 189 55 46 255
0.756179 0.000000 -0.549397 0.000000 -0.999969 0.000000 189 166 128 255
0.782598 0.000000 -0.568591 0.000000 -1.000000 0.000000 189 83 67 255
-0.000000 0.149072 0.932181 0.000000 0.125614 0.992065 189 0 5 255
-0.878089 0.000000 0.274698 0.000000 -1.000000 0.000000 189 88 70 255
-0.855065 0.000000 0.379061 0.000000 -1.000000 0.000000 189 58 48 255
-0.782598 0.000000 0.568591 0.000000 -1.000000 0.000000 189 175 135 255
0.871853 0.000000 0.293893 0.000000 -1.000000 0.000000 189 76 62 255
0.914569 0.000000 0.195929 0.000000 -1.000000 0.000000 189 51 43 255
0.934689 0.000000 0.000000 0.000000 -1.000000 0.000000 189 152 118 255
0.967344 0.000000 0.000000 0.000000 -1.000000 0.000000 189 76 62 255
0.010091 0.000000 -0.920001 0.000000 -0.999969 0.000000 189 88 70 255
-0.096277 0.000000 -0.930353 0.000000 -1.000000 0.000000 189 58 48 255
-0.288831 0.000000 -0.888943 0.000000 -1.000000 0.000000 189 175 135 255
-0.298922 0.000000 -0.920000 0.000000 -1.000000 0.000000 189 88 70 255
-0.871853 0.000000 -0.293893 0.000000 -1.000000 0.000000 189 84 67 255
-0.914569 0.000000 -0.195929 0.000000 -1.000000 0.000000 189 56 46 255
-0.934689 0.000000 0.000000 0.000000 -1.000000 0.000000 189 167 129 255
-0.967344 0.000000 0.000000 0.000000 -1.000000 0.000000 189 84 67 255
0.532596 0.000000 0.750227 0.000000 -1.000000 0.000000 189 88 70 255
0.624736 0.000000 0.696080 0.000000 -1.000000 0.000000 189 58 48 255
0.756179 0.000000 0.549397 0.000000 -1.000000 0.000000 189 175 135 255
0.782598 0.000000 0.568591 0.000000 -1.000000 0.000000 189 175 135 255
-0.532596 0.000000 -0.750227 0.000000 -1.000000 0.000000 189 88 70 255
-0.624736 0.000000 -0.696080 0.000000 -1.000000 0.000000 189 58 48 255
-0.756179 0.000000 -0.549397 0.000000 -1.000000 0.000000 189 175 135 255
-0.782598 0.000000 -0.568591 0.000000 -1.000000 0.000000 189 88 70 255
0.532596 0.000000 -0.750227 0.000000 -1.000000 0.000000 189 83 67 255
0.451341 0.000000 -0.796466 0.000000 -1.000000 0.000000 189 114 89 255
0.298922 0.000000 -0.920000 0.000000 -1.000000 0.000000 189 88 70 255
0.522505 0.000000 -0.719170 0.000000 -1.000000 0.000000 189 171 132 255
0.288831 0.000000 -0.888943 0.000000 -1.000000 0.000000 189 175 135 255
0.109666 0.000000 -0.337522 0.191931 -0.783685 -0.590716 189 175 135 255
-0.000000 -0.368964 -0.337522 0.000000 0.000000 -1.000000 189 175 135 255
-0.036555 -0.245976 -0.337522 0.000000 0.000000 -0.999969 189 175 135 255
-0.000000 0.000000 -0.337522 0.000000 -0.707083 -0.707083 189 175 135 255
-0.109666 -0.737929 -0.337522 -0.236457 -0.643696 -0.727805 189 175 135 255
-0.109666 -0.368964 -0.337522 -0.309000 0.000000 -0.951048 189 175 135 255
-0.109666 0.000000 -0.337522 -0.191931 -0.783685 -0.590716 189 175 135 255
0.610900 0.000000 -0.104300 0.000000 -1.000000 0.000000 189 164 127 255
0.659327 0.000000 -0.252665 0.000000 -1.000000 0.000000 189 164 127 255
0.845434 0.000000 -0.274698 0.000000 -1.000000 0.000000 189 159 123 255
0.287112 0.000000 -0.208600 0.502487 -0.783685 -0.365062 189 175 135 255
0.521646 0.000000 -0.378998 0.000000 -1.000000 0.000000 189 171 132 255
0.432922 0.000000 -0.443459 0.000000 -1.000000 0.000000 189 171 132 255
0.384892 0.000000 -0.591954 0.000000 -1.000000 0.000000 189 172 133 255
0.199248 0.000000 -0.613232 0.000000 -1.000000 0.000000 189 175 135 255
0.089582 0.000000 -0.613232 0.000000 -1.000000 0.000000 189 175 135 255
-0.036555 0.000000 -0.705136 0.000000 -1.000000 0.000000 189 175 135 255
0.000000 0.000000 -0.888943 0.000000 -1.000000 0.000000 189 175 135 255
-0.199248 0.000000 -0.613232 0.000000 -1.000000 0.000000 189 175 135 255
0.432922 0.000000 0.443459 0.000000 -0.999969 0.000000 189 175 135 255
0.384319 0.000000 0.365173 0.000000 -1.000000 0.000000 189 175 135 255
0.521646 0.000000 0.378998 0.000000 -0.999969 0.000000 189 175 135 255
0.109666 0.000000 0.337522 0.191931 -0.783685 0.590716 189 175 135 255
0.198389 0.000000 0.273061 0.415601 -0.707083 0.572039 189 175 135 255
0.287112 0.000000 0.208600 0.502487 -0.783685 0.365062 189 175 135 255
-0.089582 0.000000 0.613232 0.000000 -1.000000 0.000000 189 175 135 255
0.036555 0.000000 0.705136 0.000000 -1.000000 0.000000 189 175 135 255
0.000000 0.000000 0.888943 0.000000 -1.000000 0.000000 189 175 135 255
0.199248 0.000000 0.613232 0.000000 -1.000000 0.000000 189 175 135 255
0.610900 0.000000 0.104300 0.000000 -1.000000 0.000000 189 164 127 255
0.525564 0.000000 0.069533 0.000000 -1.000000 0.000000 189 167 129 255
0.644790 0.000000 -0.000000 0.000000 -1.000000 0.000000 189 164 127 255
0.321001 0.000000 0.104300 0.672475 -0.707083 0.218482 189 175 135 255
0.354891 0.000000 -0.000000 0.621113 -0.783685 0.000000 189 175 135 255
-0.432922 0.000000 -0.443459 0.000000 -1.000000 0.000000 189 175 135 255
-0.384319 0.000000 -0.365173 0.000000 -1.000000 0.000000 189 175 135 255
-0.521646 0.000000 -0.378998 0.000000 -1.000000 0.000000 189 175 135 255
-0.198389 0.000000 -0.273061 -0.415601 -0.707083 -0.572039 189 175 135 255
-0.287112 0.000000 -0.208600 -0.502487 -0.783685 -0.365062 189 175 135 255
-0.610900 0.000000 0.104300 0.000000 -1.000000 0.000000 189 171 132 255
-0.659327 0.000000 0.252665 0.000000 -1.000000 0.000000 189 172 133 255
-0.845434 0.000000 0.274698 0.000000 -1.000000 0.000000 189 171 132 255
-0.287112 0.000000 0.208600 -0.502487 -0.783685 0.365062 189 175 135 255
-0.521646 0.000000 0.378998 0.000000 -1.000000 0.000000 189 175 135 255
-0.610900 0.000000 -0.104300 0.000000 -1.000000 0.000000 189 171 132 255
-0.525564 0.000000 -0.069533 0.000000 -1.000000 0.000000 189 172 133 255
-0.644790 0.000000 -0.000000 0.000000 -1.000000 0.000000 189 171 132 255
-0.321001 0.000000 -0.104300 -0.672475 -0.707083 -0.218482 189 175 135 255
-0.354891 0.000000 -0.000000 -0.621113 -0.783685 0.000000 189 175 135 255
0.321001 -0.368964 -0.104300 0.951048 0.000000 -0.309000 189 175 135 255
0.309705 -0.245976 -0.139066 0.951048 0.000000 -0.309000 189 175 135 255
0.321001 0.000000 -0.104300 0.672475 -0.707083 -0.218482 189 175 135 255
0.287112 -0.737929 -0.208600 0.619098 -0.643696 -0.449782 189 175 135 255
0.287112 -0.368964 -0.208600 0.809015 0.000000 -0.587756 189 175 135 255
-0.198389 -0.368964 0.273061 -0.587756 0.000000 0.809015 189 175 135 255
-0.168815 -0.245976 0.294548 -0.587756 0.000000 0.809015 189 175 135 255
-0.198389 0.000000 0.273061 -0.415601 -0.707083 0.572039 189 175 135 255
-0.109666 -0.737929 0.337522 -0.236457 -0.643696 0.727805 189 175 135 255
-0.109666 -0.368964 0.337522 -0.309000 0.000000 0.951048 189 175 135 255
-0.198389 -0.368964 -0.273061 -0.587756 0.000000 -0.809015 189 175 135 255
-0.227964 -0.245976 -0.251574 -0.587756 0.000000 -0.809015 189 175 135 255
-0.287112 -0.737929 -0.208600 -0.619098 -0.643696 -0.449782 189 175 135 255
-0.287112 -0.368964 -0.208600 -0.809015 0.000000 -0.587756 189 175 135 255
0.198389 -0.368964 0.273061 0.587756 0.000000 0.809015 189 175 135 255
0.227964 -0.245976 0.251574 0.587756 0.000000 0.809015 189 175 135 255
0.287112 -0.737929 0.208600 0.619098 -0.643696 0.449782 189 175 135 255
0.287112 -0.368964 0.208600 0.809015 0.000000 0.587756 189 175 135 255
-0.000000 -0.368964 0.337522 0.000000 0.000000 1.000000 189 175 135 255
0.036555 -0.245976 0.337522 0.000000 0.000000 1.000000 189 175 135 255
-0.000000 0.000000 0.337522 0.000000 -0.707083 0.707083 189 175 135 255
0.109666 -0.737929 0.337522 0.236457 -0.643696 0.727805 189 175 135 255
0.109666 -0.368964 0.337522 0.309000 0.000000 0.951048 189 175 135 255
0.198389 -0.368964 -0.273061 0.587756 0.000000 -0.809015 189 175 135 255
0.168815 -0.245976 -0.294548 0.587756 0.000000 -0.809015 189 175 135 255
0.198389 0.000000 -0.273061 0.415601 -0.707083 -0.572039 189 175 135 255
0.109666 -0.737929 -0.337522 0.236457 -0.643696 -0.727805 189 175 135 255
0.109666 -0.368964 -0.337522 0.309000 0.000000 -0.951048 189 175 135 255
-0.321001 -0.368964 -0.104300 -0.951048 0.000000 -0.309000 189 175 135 255
-0.332298 -0.245976 -0.069533 -0.951048 0.000000 -0.309000 189 175 135 255
-0.354891 -0.737929 -0.000000 -0.765252 -0.643696 0.000000 189 175 135 255
-0.354891 -0.368964 -0.000000 -1.000000 0.000000 0.000000 189 175 135 255
-0.321001 -0.368964 0.104300 -0.951048 0.000000 0.309000 189 175 135 255
-0.309705 -0.245976 0.139066 -0.951048 0.000000 0.309000 189 175 135 255
-0.321001 0.000000 0.104300 -0.672475 -0.707083 0.218482 189 175 135 255
-0.287112 -0.737929 0.208600 -0.619098 -0.643696 0.449782 189 175 135 255
-0.287112 -0.368964 0.208600 -0.809015 0.000000 0.587756 189 175 135 255
0.321001 -0.368964 0.104300 0.951048 0.000000 0.309000 189 175 135 255
0.332298 -0.245976 0.069533 0.951048 0.000000 0.309000 189 175 135 255
0.354891 -0.737929 -0.000000 0.765252 -0.643696 0.000000 189 175 135 255
0.354891 -0.368964 -0.000000 1.000000 0.000000 0.000000 189 175 135 255
-0.000000 -0.737929 0.337522 0.000000 -0.707083 0.707083 189 175 135 255
-0.000000 -0.737929 0.225014 0.000000 -1.000000 0.000000 189 175 135 255
0.054833 -0.737929 0.168761 0.000000 -1.000000 0.000000 189 175 135 255
-0.054833 -0.737929 0.168761 0.000000 -1.000000 0.000000 189 175 135 255
-0.000000 -0.737928 -0.000000 0.000000 -1.000000 0.000000 189 175 135 255
-0.198389 -0.737929 0.273061 -0.415601 -0.707083 0.572039 189 175 135 255
-0.132259 -0.737929 0.182040 0.000000 -1.000000 0.000000 189 175 135 255
-0.143556 -0.737929 0.104300 0.000000 -1.000000 0.000000 189 175 135 255
-0.321001 -0.737929 0.104300 -0.672475 -0.707083 0.218482 189 175 135 255
-0.214001 -0.737929 0.069533 0.000000 -1.000000 0.000000 189 175 135 255
-0.177445 -0.737929 -0.000000 0.000000 -1.000000 0.000000 189 175 135 255
-0.321001 -0.737929 -0.104300 -0.672475 -0.707083 -0.218482 189 175 135 255
-0.214001 -0.737929 -0.069533 0.000000 -1.000000 0.000000 189 175 135 255
-0.143556 -0.737929 -0.104300 0.000000 -1.000000 0.000000 189 175 135 255
-0.198389 -0.737929 -0.273061 -0.415601 -0.707083 -0.572039 189 175 135 255
-0.132259 -0.737929 -0.182040 0.000000 -1.000000 0.000000 189 175 135 255
-0.054833 -0.737929 -0.168761 0.000000 -1.000000 0.000000 189 175 135 255
-0.000000 -0.737929 -0.337522 0.000000 -0.707083 -0.707083 189 175 135 255
-0.000000 -0.737929 -0.225014 0.000000 -1.000000 0.000000 189 175 135 255
0.054833 -0.737929 -0.168761 0.000000 -1.000000 0.000000 189 175 135 255
0.198389 -0.737929 -0.273061 0.415601 -0.707083 -0.572039 189 175 135 255
0.132259 -0.737929 -0.182040 0.000000 -1.000000 0.000000 189 175 135 255
0.143556 -0.737929 -0.104300 0.000000 -1.000000 0.000000 189 175 135 255
0.321001 -0.737929 -0.104300 0.672475 -0.707083 -0.218482 189 175 135 255
0.214001 -0.737929 -0.069533 0.000000 -1.000000 0.000000 189 175 135 255
0.177445 -0.737929 -0.000000 0.000000 -1.000000 0.000000 189 175 135 255
0.321001 -0.737929 0.104300 0.672475 -0.707083 0.218482 189 175 135 255
0.214001 -0.737929 0.069533 0.000000 -1.000000 0.000000 189 175 135 255
0.143556 -0.737929 0.104300 0.000000 -1.000000 0.000000 189 175 135 255
0.198389 -0.737929 0.273061 0.415601 -0.707083 0.572039 189 175 135 255
0.132259 -0.737929 0.182040 0.000000 -1.000000 0.000000 189 175 135 255
-0.624736 0.000000 0.696080 0.000000 -1.000000 0.000000 189 58 48 255
-0.384319 0.000000 0.365173 0.000000 -1.000000 0.000000 189 175 135 255
-0.103004 0.000000 0.909648 0.000000 -1.000000 0.000000 189 117 92 255
0.896956 0.000000 -0.183132 0.000000 -1.000000 0.000000 189 106 84 255
-0.896956 0.000000 0.183132 0.000000 -1.000000 0.000000 189 114 90 255
0.833295 0.000000 0.379061 0.000000 -1.000000 0.000000 189 109 86 255
0.845434 0.000000 0.274698 0.000000 -1.000000 0.000000 189 164 127 255
0.103004 0.000000 -0.909648 0.000000 -1.000000 0.000000 189 117 92 255
-0.833295 0.000000 -0.379061 0.000000 -1.000000 0.000000 189 114 90 255
-0.845434 0.000000 -0.274698 0.000000 -1.000000 0.000000 189 171 132 255
0.451341 0.000000 0.796466 0.000000 -1.000000 0.000000 189 117 92 255
0.522505 0.000000 0.719170 0.000000 -1.000000 0.000000 189 175 135 255
-0.451341 0.000000 -0.796466 0.000000 -1.000000 0.000000 189 117 92 255
-0.522505 0.000000 -0.719170 0.000000 -1.000000 0.000000 189 175 135 255
0.624736 0.000000 -0.696080 0.000000 -1.000000 0.000000 189 55 46 255
0.036555 -0.491952 -0.337522 0.000000 0.000000 -1.000000 189 175 135 255
0.525564 0.000000 -0.069533 0.000000 -1.000000 0.000000 189 167 129 255
0.384319 0.000000 -0.365173 0.000000 -1.000000 0.000000 189 172 133 255
0.096277 0.000000 -0.521329 0.000000 -1.000000 0.000000 189 175 135 255
0.384892 0.000000 0.591954 0.000000 -1.000000 0.000000 189 175 135 255
-0.096277 0.000000 0.521329 0.000000 -1.000000 0.000000 189 175 135 255
0.659327 0.000000 0.252665 0.000000 -1.000000 0.000000 189 167 129 255
-0.384892 0.000000 -0.591954 0.000000 -0.999969 0.000000 189 175 135 255
-0.525564 0.000000 0.069533 0.000000 -1.000000 0.000000 189 172 133 255
-0.659327 0.000000 -0.252665 0.000000 -1.000000 0.000000 189 172 133 255
0.332298 -0.491952 -0.069533 0.951048 0.000000 -0.309000 189 175 135 255
-0.227964 -0.491952 0.251574 -0.587756 0.000000 0.809015 189 175 135 255
-0.168815 -0.491952 -0.294548 -0.587756 0.000000 -0.809015 189 175 135 255
0.168815 -0.491952 0.294548 0.587756 0.000000 0.809015 189 175 135 255
-0.036555 -0.491952 0.337522 0.000000 0.000000 1.000000 189 175 135 255
0.227964 -0.491952 -0.251574 0.587756 0.000000 -0.809015 189 175 135 255
-0.309705 -0.491952 -0.139066 -0.951048 0.000000 -0.309000 189 175 135 255
-0.332298 -0.491952 0.069533 -0.951048 0.000000 0.309000 189 175 135 255
0.309705 -0.491952 0.139066 0.951048 0.000000 0.309000 189 175 135 255
3 0 1 2
3 0 2 3
3 4 5 2
3 4 2 1
3 6 3 2
3 6 2 5
3 7 8 9
3 7 9 10
3 11 12 9
3 11 9 8
3 13 10 9
3 13 9 12
3 14 15 16
3 14 16 17
3 18 19 16
3 18 16 15
3 20 17 16
3 20 16 19
3 21 22 23
3 21 23 24
3 25 26 23
3 25 23 22
3 27 24 23
3 27 23 26
3 28 29 30
3 28 30 31
3 32 33 30
3 32 30 29
3 34 31 30
3 34 30 33
3 34 35 36
3 34 36 37
3 27 38 36
3 27 36 35
3 39 37 36
3 39 36 38
3 34 33 40
3 34 40 35
3 32 41 40
3 32 40 33
3 27 35 40
3 27 40 41
3 32 42 43
3 32 43 41
3 21 24 43
3 21 43 42
3 27 41 43
3 27 43 24
3 27 44 45
3 27 45 38
3 20 46 45
3 20 45 44
3 39 38 45
3 39 45 46
3 27 26 47
3 27 47 44
3 25 48 47
3 25 47 26
3 20 44 47
3 20 47 48
3 25 49 50
3 25 50 48
3 14 17 50
3 14 50 49
3 20 48 50
3 20 50 17
3 20 51 52
3 20 52 46
3 13 53 52
3 13 52 51
3 39 46 52
3 39 52 53
3 20 19 54
3 20 54 51
3 18 55 54
3 18 54 19
3 13 51 54
3 13 54 55
3 18 56 57
3 18 57 55
3 7 10 57
3 7 57 56
3 13 55 57
3 13 57 10
3 13 58 59
3 13 59 53
3 6 60 59
3 6 59 58
3 39 53 59
3 39 59 60
3 13 12 61
3 13 61 58
3 11 62 61
3 11 61 12
3 6 58 61
3 6 61 62
3 11 63 64
3 11 64 62
3 0 3 64
3 0 64 63
3 6 62 64
3 6 64 3
3 6 65 66
3 6 66 60
3 34 37 66
3 34 66 65
3 39 60 66
3 39 66 37
3 6 5 67
3 6 67 65
3 4 68 67
3 4 67 5
3 34 65 67
3 34 67 68
3 4 69 70
3 4 70 68
3 28 31 70
3 28 70 69
3 34 68 70
3 34 70 31
3 71 72 73
3 71 73 74
3 32 29 73
3 32 73 72
3 28 74 73
3 28 73 29
3 71 75 76
3 71 76 72
3 77 78 76
3 77 76 75
3 32 72 76
3 32 76 78
3 77 79 80
3 77 80 78
3 21 42 80
3 21 80 79
3 32 78 80
3 32 80 42
3 81 82 83
3 81 83 84
3 25 22 83
3 25 83 82
3 21 84 83
3 21 83 22
3 81 85 86
3 81 86 82
3 87 88 86
3 87 86 85
3 25 82 86
3 25 86 88
3 87 89 90
3 87 90 88
3 14 49 90
3 14 90 89
3 25 88 90
3 25 90 49
3 91 92 93
3 91 93 94
3 18 15 93
3 18 93 92
3 14 94 93
3 14 93 15
3 91 95 96
3 91 96 92
3 97 98 96
3 97 96 95
3 18 92 96
3 18 96 98
3 97 99 100
3 97 100 98
3 7 56 100
3 7 100 99
3 18 98 100
3 18 100 56
3 101 102 103
3 101 103 104
3 11 8 103
3 11 103 102
3 7 104 103
3 7 103 8
3 101 105 106
3 101 106 102
3 107 108 106
3 107 106 105
3 11 102 106
3 11 106 108
3 107 109 110
3 107 110 108
3 0 63 110
3 0 110 109
3 11 108 110
3 11 110 63
3 111 112 113
3 111 113 114
3 4 1 113
3 4 113 112
3 0 114 113
3 0 113 1
3 111 115 116
3 111 116 112
3 117 118 116
3 117 116 115
3 4 112 116
3 4 116 118
3 117 119 120
3 117 120 118
3 28 69 120
3 28 120 119
3 4 118 120
3 4 120 69
3 77 121 122
3 77 122 79
3 81 84 122
3 81 122 121
3 21 79 122
3 21 122 84
3 117 123 124
3 117 124 125
3 126 127 124
3 126 124 123
3 128 125 124
3 128 124 127
3 87 129 130
3 87 130 89
3 91 94 130
3 91 130 129
3 14 89 130
3 14 130 94
3 126 131 132
3 126 132 127
3 133 134 132
3 133 132 131
3 128 127 132
3 128 132 134
3 97 135 136
3 97 136 99
3 101 104 136
3 101 136 135
3 7 99 136
3 7 136 104
3 117 137 138
3 117 138 139
3 140 141 138
3 140 138 137
3 71 139 138
3 71 138 141
3 107 142 143
3 107 143 109
3 111 114 143
3 111 143 142
3 0 109 143
3 0 143 114
3 81 144 145
3 81 145 85
3 146 147 145
3 146 145 144
3 87 85 145
3 87 145 147
3 117 139 148
3 117 148 119
3 71 74 148
3 71 148 139
3 28 119 148
3 28 148 74
3 107 149 150
3 107 150 142
3 126 151 150
3 126 150 149
3 111 142 150
3 111 150 151
3 77 152 153
3 77 153 121
3 154 155 153
3 154 153 152
3 81 121 153
3 81 153 155
3 91 156 157
3 91 157 95
3 158 159 157
3 158 157 156
3 97 95 157
3 97 157 159
3 101 160 161
3 101 161 105
3 162 163 161
3 162 161 160
3 107 105 161
3 107 161 163
3 71 164 165
3 71 165 75
3 166 167 165
3 166 165 164
3 77 75 165
3 77 165 167
3 97 168 169
3 97 169 135
3 170 171 169
3 170 169 168
3 101 135 169
3 101 169 171
3 91 172 173
3 91 173 174
3 146 175 173
3 146 173 172
3 176 174 173
3 176 173 175
3 177 178 179
3 177 179 180
3 181 182 179
3 181 179 178
3 183 180 179
3 183 179 182
3 154 184 185
3 154 185 186
3 187 188 185
3 187 185 184
3 146 186 185
3 146 185 188
3 146 189 190
3 146 190 175
3 177 191 190
3 177 190 189
3 176 175 190
3 176 190 191
3 176 192 193
3 176 193 194
3 183 195 193
3 183 193 192
3 158 194 193
3 158 193 195
3 166 196 197
3 166 197 198
3 199 200 197
3 199 197 196
3 201 198 197
3 201 197 200
3 128 202 203
3 128 203 204
3 199 205 203
3 199 203 202
3 140 204 203
3 140 203 205
3 154 206 207
3 154 207 208
3 201 209 207
3 201 207 206
3 210 208 207
3 210 207 209
3 170 211 212
3 170 212 213
3 183 214 212
3 183 212 211
3 215 213 212
3 215 212 214
3 162 216 217
3 162 217 218
3 219 220 217
3 219 217 216
3 126 218 217
3 126 217 220
3 162 221 222
3 162 222 223
3 215 224 222
3 215 222 221
3 225 223 222
3 225 222 224
3 210 226 227
3 210 227 228
3 229 230 227
3 229 227 226
3 187 228 227
3 187 227 230
3 219 231 232
3 219 232 233
3 234 235 232
3 234 232 231
3 133 233 232
3 133 232 235
3 183 236 237
3 183 237 214
3 238 239 237
3 238 237 236
3 215 214 237
3 215 237 239
3 199 240 241
3 199 241 200
3 242 243 241
3 242 241 240
3 201 200 241
3 201 241 243
3 133 244 245
3 133 245 246
3 247 248 245
3 247 245 244
3 199 246 245
3 199 245 248
3 187 249 250
3 187 250 251
3 252 253 250
3 252 250 249
3 177 251 250
3 177 250 253
3 215 254 255
3 215 255 224
3 256 257 255
3 256 255 254
3 225 224 255
3 225 255 257
3 225 258 259
3 225 259 260
3 261 262 259
3 261 259 258
3 219 260 259
3 219 259 262
3 201 263 264
3 201 264 209
3 265 266 264
3 265 264 263
3 210 209 264
3 210 264 266
3 247 267 268
3 247 268 269
3 234 270 268
3 234 268 267
3 271 269 268
3 271 268 270
3 234 272 273
3 234 273 270
3 261 274 273
3 261 273 272
3 271 270 273
3 271 273 274
3 261 275 276
3 261 276 274
3 256 277 276
3 256 276 275
3 271 274 276
3 271 276 277
3 256 278 279
3 256 279 277
3 238 280 279
3 238 279 278
3 271 277 279
3 271 279 280
3 238 281 282
3 238 282 280
3 181 283 282
3 181 282 281
3 271 280 282
3 271 282 283
3 181 284 285
3 181 285 283
3 252 286 285
3 252 285 284
3 271 283 285
3 271 285 286
3 252 287 288
3 252 288 286
3 229 289 288
3 229 288 287
3 271 286 288
3 271 288 289
3 229 290 291
3 229 291 289
3 265 292 291
3 265 291 290
3 271 289 291
3 271 291 292
3 265 293 294
3 265 294 292
3 242 295 294
3 242 294 293
3 271 292 294
3 271 294 295
3 242 296 297
3 242 297 295
3 247 269 297
3 247 297 296
3 271 295 297
3 271 297 269
3 117 115 298
3 117 298 123
3 111 151 298
3 111 298 115
3 126 123 298
3 126 298 151
3 126 220 299
3 126 299 131
3 219 233 299
3 219 299 220
3 133 131 299
3 133 299 233
3 117 125 300
3 117 300 137
3 128 204 300
3 128 300 125
3 140 137 300
3 140 300 204
3 81 155 301
3 81 301 144
3 154 186 301
3 154 301 155
3 146 144 301
3 146 301 186
3 107 163 302
3 107 302 149
3 162 218 302
3 162 302 163
3 126 149 302
3 126 302 218
3 77 167 303
3 77 303 152
3 166 304 303
3 166 303 167
3 154 152 303
3 154 303 304
3 91 174 305
3 91 305 156
3 176 194 305
3 176 305 174
3 158 156 305
3 158 305 194
3 101 171 306
3 101 306 160
3 170 307 306
3 170 306 171
3 162 160 306
3 162 306 307
3 71 141 308
3 71 308 164
3 140 309 308
3 140 308 141
3 166 164 308
3 166 308 309
3 97 159 310
3 97 310 168
3 158 311 310
3 158 310 159
3 170 168 310
3 170 310 311
3 91 129 312
3 91 312 172
3 87 147 312
3 87 312 129
3 146 172 312
3 146 312 147
3 177 253 313
3 177 313 178
3 252 284 313
3 252 313 253
3 181 178 313
3 181 313 284
3 154 208 314
3 154 314 184
3 210 228 314
3 210 314 208
3 187 184 314
3 187 314 228
3 146 188 315
3 146 315 189
3 187 251 315
3 187 315 188
3 177 189 315
3 177 315 251
3 176 191 316
3 176 316 192
3 177 180 316
3 177 316 191
3 183 192 316
3 183 316 180
3 166 309 317
3 166 317 196
3 140 205 317
3 140 317 309
3 199 196 317
3 199 317 205
3 128 134 318
3 128 318 202
3 133 246 318
3 133 318 134
3 199 202 318
3 199 318 246
3 154 304 319
3 154 319 206
3 166 198 319
3 166 319 304
3 201 206 319
3 201 319 198
3 170 311 320
3 170 320 211
3 158 195 320
3 158 320 311
3 183 211 320
3 183 320 195
3 162 223 321
3 162 321 216
3 225 260 321
3 225 321 223
3 219 216 321
3 219 321 260
3 162 307 322
3 162 322 221
3 170 213 322
3 170 322 307
3 215 221 322
3 215 322 213
3 210 266 323
3 210 323 226
3 265 290 323
3 265 323 266
3 229 226 323
3 229 323 290
3 219 262 324
3 219 324 231
3 261 272 324
3 261 324 262
3 234 231 324
3 234 324 272
3 183 182 325
3 183 325 236
3 181 281 325
3 181 325 182
3 238 236 325
3 238 325 281
3 199 248 326
3 199 326 240
3 247 296 326
3 247 326 248
3 242 240 326
3 242 326 296
3 133 235 327
3 133 327 244
3 234 267 327
3 234 327 235
3 247 244 327
3 247 327 267
3 187 230 328
3 187 328 249
3 229 287 328
3 229 328 230
3 252 249 328
3 252 328 287
3 215 239 329
3 215 329 254
3 238 278 329
3 238 329 239
3 256 254 329
3 256 329 278
3 225 257 330
3 225 330 258
3 256 275 330
3 256 330 257
3 261 258 330
3 261 330 275
3 201 243 331
3 201 331 263
3 242 293 331
3 242 331 243
3 265 263 331
3 265 331 293
