ply
format ascii 1.0
comment Created by Blender 2.80 (sub 75) - www.blender.org, source file: 'grass.blend'
element vertex 196
property float x
property float y
property float z
property float nx
property float ny
property float nz
property uchar red
property uchar green
property uchar blue
property uchar alpha
element face 196
property list uchar uint vertex_indices
end_header
1.000000 -1.000000 0.000000 0.862941 -0.505264 0.000000 0 161 4 255
0.000000 6.307383 0.000000 0.000000 1.000000 0.000000 0 161 4 255
-0.500000 -1.000000 0.866025 -0.431471 -0.505264 0.747337 0 161 4 255
-0.500000 -1.000000 -0.866025 -0.431471 -0.505264 -0.747337 0 161 4 255
1.478970 -1.000000 1.676735 0.775903 -0.491653 0.395215 0 161 4 255
0.587909 4.703249 1.222851 0.000000 1.000000 0.000000 49 161 4 255
-0.250696 -1.000000 1.767590 -0.730247 -0.491653 0.474349 0 161 4 255
0.535454 -1.000000 0.224228 -0.045656 -0.491653 -0.869564 0 161 4 255
-0.859028 -1.000000 0.251910 0.093905 -0.449385 -0.888363 0 161 4 255
-0.964171 2.343987 1.246368 0.000000 1.000000 0.000000 0 161 4 255
-0.155517 -1.000000 1.834653 0.722373 -0.449385 0.525529 0 161 4 255
-1.877968 -1.000000 1.652540 -0.816309 -0.449385 0.362835 0 161 4 255
-0.415161 -1.000000 0.032469 0.787957 -0.486251 0.377697 0 161 4 255
-1.316917 4.242525 -0.399778 0.000000 1.000000 0.000000 150 161 0 255
-2.142131 -1.000000 0.165041 -0.721061 -0.486251 0.493545 0 161 4 255
-1.393457 -1.000000 -1.396845 -0.066866 -0.486251 -0.871242 0 161 4 255
2.066820 -1.000000 -1.312432 0.743889 -0.472304 -0.472762 0 161 4 255
1.222851 3.329146 -0.776040 0.000000 1.000000 0.000000 9 161 4 255
1.265396 -1.000000 0.223054 0.037477 -0.472304 0.880612 0 161 4 255
0.336337 -1.000000 -1.238743 -0.781365 -0.472304 -0.407819 0 161 4 255
-0.945204 -1.007336 -2.372733 -0.663930 -0.419721 -0.618854 0 161 4 255
-0.235854 1.420604 -1.693178 -0.009980 0.999939 0.000000 0 161 4 255
0.743615 -0.990447 -1.988714 0.874081 -0.404340 -0.269143 0 161 4 255
-0.433353 -1.002217 -0.718088 -0.197760 -0.415052 0.888028 0 161 4 255
2.587494 -1.000000 -0.073085 0.714438 -0.497757 -0.491684 0 161 4 255
1.763728 5.329917 0.493844 0.000000 1.000000 0.000000 74 167 4 255
1.842819 -1.000000 1.490711 0.068575 -0.497757 0.864589 0 161 4 255
0.860869 -1.000000 0.063905 -0.783044 -0.497757 -0.372875 0 161 4 255
1.118620 -1.000000 2.802364 0.774071 -0.505264 -0.381451 0 161 4 255
0.221625 6.307383 3.244405 0.000000 0.999969 0.000000 0 161 4 255
0.155946 -1.000000 4.242246 -0.056673 -0.505264 0.861080 0 161 4 255
-0.609691 -1.000000 2.688605 -0.717368 -0.505264 -0.479629 0 161 4 255
2.289439 -1.000000 4.094664 0.870693 -0.491653 0.011505 0 161 4 255
1.289527 4.703249 4.081417 0.000000 1.000000 0.000000 135 161 2 255
0.778098 -1.000000 4.940742 -0.445326 -0.491653 0.748283 0 161 4 255
0.801043 -1.000000 3.208844 -0.425367 -0.491653 -0.759819 0 161 4 255
-0.437564 -1.000000 3.850093 -0.308420 -0.449385 -0.838374 0 161 4 255
-0.092286 2.343987 4.788593 0.000000 1.000000 0.000000 0 161 4 255
0.893118 -1.000000 4.958824 0.880276 -0.449385 0.152043 0 161 4 255
-0.732413 -1.000000 5.556863 -0.571825 -0.449385 0.686300 0 161 4 255
-0.136420 -1.000000 3.457048 0.873745 -0.486251 -0.009491 0 161 4 255
-1.136361 4.242525 3.467937 0.000000 0.999969 0.000000 142 161 1 255
-1.626901 -1.000000 4.339355 -0.428632 -0.486251 0.761437 0 161 4 255
-1.645761 -1.000000 2.607407 -0.445112 -0.486251 -0.751915 0 161 4 255
1.495404 -1.000000 1.153541 0.458266 -0.472304 -0.752892 0 161 4 255
0.975475 3.329146 2.007751 0.000000 1.000000 0.000000 88 161 3 255
1.455278 -1.000000 2.885127 0.422895 -0.472304 0.773309 0 161 4 255
-0.024256 -1.000000 1.984584 -0.881161 -0.472304 -0.020417 0 161 4 255
-1.675063 -1.007336 1.533894 -0.869106 -0.419721 -0.261635 0 161 4 255
-0.738389 1.420604 1.829889 -0.008942 0.999939 0.004395 39 161 4 255
0.009552 -0.990447 1.131831 0.665090 -0.404340 -0.627796 0 161 4 255
-0.484515 -1.002217 2.791843 0.215125 -0.415052 0.883969 0 161 4 255
2.510288 -1.000000 2.035070 0.423505 -0.497757 -0.756859 0 161 4 255
2.021979 5.329917 2.907741 0.000000 1.000000 0.000000 142 161 1 255
2.533580 -1.000000 3.766964 0.443709 -0.497757 0.745201 0 161 4 255
1.022070 -1.000000 2.921189 -0.867214 -0.497757 0.011658 0 161 4 255
3.569169 -1.000000 1.656977 0.039155 -0.505264 0.862056 0 161 4 255
3.523788 6.307383 0.658008 0.000000 1.000000 0.000000 0 161 4 255
2.635964 -1.000000 0.197824 -0.766137 -0.505264 -0.397107 0 161 4 255
4.366230 -1.000000 0.119222 0.726981 -0.505264 -0.464949 0 161 4 255
1.915897 -1.000000 2.211545 -0.359600 -0.491653 0.793054 0 161 4 255
2.328876 4.703249 1.300805 0.000000 1.000000 0.000000 72 161 3 255
1.746642 -1.000000 0.487784 -0.507004 -0.491653 -0.707968 0 161 4 255
3.324090 -1.000000 1.203086 0.866604 -0.491653 -0.085086 0 161 4 255
3.233154 -1.000000 -0.188704 0.891720 -0.449385 0.053499 0 161 4 255
2.234950 2.343987 -0.248609 0.000000 1.000000 0.000000 149 161 0 255
1.683968 -1.000000 0.585909 -0.492203 -0.449385 0.745476 0 161 4 255
1.787727 -1.000000 -1.143032 -0.399487 -0.449385 -0.799005 0 161 4 255
3.472512 -1.000000 0.244747 -0.341533 -0.486251 0.804285 0 161 4 255
3.863391 4.242525 -0.675695 0.000000 1.000000 0.000000 0 161 4 255
3.261705 -1.000000 -1.474427 -0.525742 -0.486251 -0.697928 0 161 4 255
4.855957 -1.000000 -0.797404 0.867306 -0.486251 -0.106326 0 161 4 255
4.928662 -1.000000 2.663139 0.506058 -0.472304 0.721641 16 161 4 255
4.354523 3.329146 1.844381 0.000000 1.000000 0.000000 101 161 3 255
3.358388 -1.000000 1.932222 -0.877987 -0.472304 0.077395 0 161 4 255
4.776518 -1.000000 0.937783 0.371929 -0.472304 -0.799066 0 161 4 255
5.851182 -1.007336 -0.393900 0.588092 -0.419721 -0.691305 0 161 4 255
5.204518 1.420604 0.345558 -0.000427 0.999939 -0.009980 0 161 4 255
5.544199 -0.990447 1.310607 0.308512 -0.404340 0.860988 0 161 4 255
4.221470 -1.002217 0.192513 -0.896084 -0.415052 -0.157262 0 161 4 255
3.714221 -1.000000 3.239519 0.523606 -0.497757 0.691397 0 161 4 255
3.110493 5.329917 2.442329 0.000000 1.000000 0.000000 33 163 4 255
2.118242 -1.000000 2.566578 -0.860561 -0.497757 0.107761 0 161 4 255
3.499016 -1.000000 1.520890 0.336955 -0.497757 -0.799158 0 161 4 255
1.035213 -1.000000 -2.585464 -0.716910 -0.505264 0.480300 0 161 4 255
1.865998 6.307383 -3.142056 0.000000 1.000000 0.000000 0 161 4 255
1.799368 -1.000000 -4.139834 -0.057497 -0.505264 -0.861019 0 161 4 255
2.763415 -1.000000 -2.700871 0.774438 -0.505264 0.380718 0 161 4 255
-0.295967 -1.000000 -3.711879 -0.864589 -0.491653 0.103488 0 161 4 255
0.696942 4.703249 -3.830757 0.000000 1.000000 0.000000 0 161 4 255
1.090445 -1.000000 -4.750080 0.342631 -0.491653 -0.800531 0 161 4 255
1.296347 -1.000000 -3.030311 0.521928 -0.491653 0.697012 0 161 4 255
2.439455 -1.000000 -3.829469 0.416425 -0.449385 0.790307 0 161 4 255
1.973298 2.343987 -4.714171 0.000000 1.000000 0.000000 0 161 4 255
0.974045 -1.000000 -4.752819 -0.892636 -0.449385 -0.034516 0 161 4 255
2.506395 -1.000000 -5.560225 0.476211 -0.449385 -0.755791 0 161 4 255
2.192836 -1.000000 -3.400107 -0.864834 -0.486251 0.124760 0 161 4 255
3.182587 4.242525 -3.542912 0.000000 0.999969 0.000000 138 161 1 255
3.553789 -1.000000 -4.471465 0.324351 -0.486251 -0.811365 0 161 4 255
3.801136 -1.000000 -2.757166 0.540483 -0.486251 0.686575 0 161 4 255
0.879405 -1.000000 -0.901329 -0.354839 -0.472304 0.806818 0 161 4 255
1.282010 3.329146 -1.816703 0.000000 1.000000 0.000000 0 161 4 255
0.690575 -1.000000 -2.623056 -0.521287 -0.472304 -0.710715 0 161 4 255
2.276049 -1.000000 -1.925724 0.876156 -0.472304 -0.096072 0 161 4 255
3.971907 -1.007336 -1.696918 0.896023 -0.419721 0.144597 0 161 4 255
3.004354 1.420604 -1.866663 0.008301 0.999939 -0.005554 0 161 4 255
2.355117 -0.990447 -1.075971 -0.576373 -0.404340 0.710105 0 161 4 255
2.625705 -1.002217 -2.786680 -0.329936 -0.415052 -0.847835 0 161 4 255
-0.242975 -1.000000 -1.641157 -0.319865 -0.497757 0.806146 0 161 4 255
0.125850 5.329917 -2.570656 0.000000 1.000000 0.000000 0 161 4 255
-0.494708 -1.000000 -3.354817 -0.538194 -0.497757 -0.680105 0 161 4 255
1.115232 -1.000000 -2.715994 0.858089 -0.497757 -0.126041 0 161 4 255
-1.450571 -1.000000 -3.576210 0.744896 -0.505264 -0.435682 0 161 4 255
-2.313763 6.307383 -3.071333 0.000000 1.000000 0.000000 0 161 4 255
-2.308123 -1.000000 -2.071349 0.004852 -0.505264 0.862941 0 161 4 255
-3.182594 -1.000000 -3.566441 -0.749748 -0.505264 -0.427259 0 161 4 255
-0.190584 -1.000000 -2.370687 0.869320 -0.491653 -0.050569 0 161 4 255
-1.188896 4.703249 -2.312600 0.000000 1.000000 0.000000 193 210 1 255
-1.637747 -1.000000 -1.418993 -0.390851 -0.491653 0.778130 0 161 4 255
-1.738356 -1.000000 -3.148120 -0.478439 -0.491653 -0.727561 0 161 4 255
-2.928085 -1.000000 -2.420183 -0.367412 -0.449385 -0.814234 0 161 4 255
-2.516765 2.343987 -1.508692 0.000000 1.000000 0.000000 0 161 4 255
-1.521731 -1.000000 -1.409160 0.888882 -0.449385 0.088900 0 161 4 255
-3.100480 -1.000000 -0.696733 -0.521439 -0.449385 0.725333 0 161 4 255
-2.655734 -1.000000 -2.833701 0.870846 -0.486251 -0.071780 0 161 4 255
-3.652353 4.242525 -2.751538 0.000000 1.000000 0.000000 140 161 1 255
-4.079507 -1.000000 -1.847360 -0.373241 -0.486251 0.790063 0 161 4 255
-4.221817 -1.000000 -3.573554 -0.497604 -0.486251 -0.718284 0 161 4 255
-1.192317 -1.000000 -5.247702 0.403394 -0.472304 -0.783654 0 161 4 255
-1.650012 3.329146 -4.358593 0.000000 1.000000 0.000000 0 161 4 255
-1.108869 -1.000000 -3.517663 0.476974 -0.472304 0.741203 0 161 4 255
-2.648851 -1.000000 -4.310414 -0.880367 -0.472304 0.042451 19 161 4 255
-4.327592 -1.007336 -4.642245 -0.885556 -0.419721 -0.198981 0 161 4 255
-3.372196 1.420604 -4.413794 -0.008606 0.999939 0.005036 147 161 0 255
-2.675935 -0.990447 -5.163408 0.618610 -0.404340 -0.673635 35 161 4 255
-3.050375 -1.002217 -3.472391 0.277596 -0.415052 0.866390 0 161 4 255
-0.117159 -1.000000 -4.440785 0.368450 -0.497757 -0.785119 0 161 4 255
-0.541998 5.329917 -3.535516 0.000000 1.000000 0.000000 165 180 1 255
0.029568 -1.000000 -2.714960 0.495712 -0.497757 0.711661 0 161 4 255
-1.538403 -1.000000 -3.450803 -0.864162 -0.497757 0.073458 0 161 4 255
-2.793509 -1.000000 0.208589 0.812067 -0.505264 -0.291940 0 161 4 255
-3.734535 6.307383 0.546921 0.000000 1.000000 0.000000 34 161 4 255
-3.912045 -1.000000 1.531040 -0.153172 -0.505264 0.849239 0 161 4 255
-4.498053 -1.000000 -0.098867 -0.658864 -0.505264 -0.557268 9 161 4 255
-1.775492 -1.000000 1.624391 0.863887 -0.491653 0.109409 0 161 4 255
-2.767568 4.703249 1.498748 0.000000 1.000000 0.000000 57 161 4 255
-3.372416 -1.000000 2.295089 -0.526688 -0.491653 0.693442 0 161 4 255
-3.154795 -1.000000 0.576764 -0.337168 -0.491653 -0.802850 0 161 4 255
-4.457675 -1.000000 1.074611 -0.212165 -0.449385 -0.867733 0 161 4 255
-4.220160 2.343987 2.045996 0.000000 1.000000 0.000000 0 161 4 255
-3.260160 -1.000000 2.325995 0.857570 -0.449385 0.250130 0 161 4 255
-4.942647 -1.000000 2.737381 -0.645405 -0.449385 0.617603 45 161 4 255
-4.114228 -1.000000 0.717937 0.869259 -0.486251 0.088809 0 161 4 255
-5.109047 4.242525 0.616273 0.000000 1.000000 0.000000 196 211 0 255
-5.694500 -1.000000 1.426979 -0.511551 -0.486251 0.708396 0 161 4 255
-5.518413 -1.000000 -0.296098 -0.357707 -0.486251 -0.797235 0 161 4 255
-2.233639 -1.000000 -1.387384 0.540056 -0.472304 -0.696585 0 161 4 255
-2.846358 3.329146 -0.597083 0.000000 1.000000 0.000000 16 161 4 255
-2.468297 -1.000000 0.328697 0.333201 -0.472304 0.815973 0 161 4 255
-3.837138 -1.000000 -0.732563 -0.873287 -0.472304 -0.119388 0 161 4 255
-5.426768 -1.007336 -1.366093 -0.834162 -0.419721 -0.357738 0 161 4 255
-4.529336 1.420604 -0.966609 -0.009400 0.999939 0.003357 139 161 1 255
-3.707618 -0.990447 -1.576101 0.731468 -0.404340 -0.548997 0 161 4 255
-4.385284 -1.002217 0.017797 0.114322 -0.415052 0.902554 0 161 4 255
-1.324361 -1.000000 -0.397286 0.505966 -0.497757 -0.704428 0 161 4 255
-1.907737 5.329917 0.414916 0.000000 1.000000 0.000000 0 161 4 255
-1.496038 -1.000000 1.326236 0.357067 -0.497757 0.790368 0 161 4 255
-2.902813 -1.000000 0.315798 -0.863033 -0.497757 -0.085940 0 161 4 255
-2.248830 -1.000000 3.291755 0.534043 -0.505264 -0.677847 0 161 4 255
-2.867685 6.307383 4.077260 0.000000 1.000000 0.000000 181 204 1 255
-2.496845 -1.000000 5.005958 0.320017 -0.505264 0.801416 0 161 4 255
-3.857380 -1.000000 3.934069 -0.854060 -0.505264 -0.123539 0 161 4 255
-0.635333 -1.000000 3.953178 0.790643 -0.491653 -0.364879 0 161 4 255
-1.543299 4.703249 4.372222 0.000000 1.000000 0.000000 0 161 4 255
-1.634379 -1.000000 5.368066 -0.079287 -0.491653 0.867153 0 161 4 255
-2.360184 -1.000000 3.795423 -0.711325 -0.491653 -0.502243 0 161 4 255
-3.201422 -1.000000 4.907928 -0.639668 -0.449385 -0.623554 0 161 4 255
-2.485339 2.343987 5.605943 0.000000 1.000000 0.000000 42 161 4 255
-1.522799 -1.000000 5.334804 0.859859 -0.449385 -0.242195 0 161 4 255
-2.731797 -1.000000 6.575097 -0.220161 -0.449385 0.865749 0 161 4 255
-3.099105 -1.000000 4.423466 0.784326 -0.486251 -0.385205 0 161 4 255
-3.996693 4.242525 4.864301 0.000000 1.000000 0.000000 136 161 2 255
-4.063714 -1.000000 5.862052 -0.058535 -0.486251 0.871822 0 161 4 255
-4.827261 -1.000000 4.307384 -0.725761 -0.486251 -0.486618 0 161 4 255
-2.619546 -1.000000 1.641557 0.088961 -0.472304 -0.876888 0 161 4 255
-2.720501 3.329146 2.636448 0.000000 1.000000 0.000000 83 161 3 255
-1.909378 -1.000000 3.221323 0.714927 -0.472304 0.515519 0 161 4 255
-3.632580 -1.000000 3.046463 -0.803919 -0.472304 0.361370 0 161 4 255
-5.316423 -1.007336 3.351345 -0.897000 -0.419721 0.138524 55 161 4 255
-4.343645 1.420604 3.214693 -0.006165 0.999939 0.007843 0 161 4 255
-3.969640 -0.990447 2.262421 0.329508 -0.404340 -0.853175 0 161 4 255
-3.699930 -1.002217 3.973269 0.575152 -0.415052 0.704917 0 161 4 255
-1.323810 -1.000000 1.999541 0.055910 -0.497757 -0.865505 0 161 4 255
-1.388277 5.329917 2.997461 0.000000 1.000000 0.000000 0 161 4 255
-0.556286 -1.000000 3.552250 0.721580 -0.497757 0.481155 0 161 4 255
-2.284734 -1.000000 3.440591 -0.777490 -0.497757 0.384320 0 161 4 255
3 0 1 2
3 2 1 3
3 3 1 0
3 0 2 3
3 4 5 6
3 6 5 7
3 7 5 4
3 4 6 7
3 8 9 10
3 10 9 11
3 11 9 8
3 8 10 11
3 12 13 14
3 14 13 15
3 15 13 12
3 12 14 15
3 16 17 18
3 18 17 19
3 19 17 16
3 16 18 19
3 20 21 22
3 22 21 23
3 23 21 20
3 20 22 23
3 24 25 26
3 26 25 27
3 27 25 24
3 24 26 27
3 28 29 30
3 30 29 31
3 31 29 28
3 28 30 31
3 32 33 34
3 34 33 35
3 35 33 32
3 32 34 35
3 36 37 38
3 38 37 39
3 39 37 36
3 36 38 39
3 40 41 42
3 42 41 43
3 43 41 40
3 40 42 43
3 44 45 46
3 46 45 47
3 47 45 44
3 44 46 47
3 48 49 50
3 50 49 51
3 51 49 48
3 48 50 51
3 52 53 54
3 54 53 55
3 55 53 52
3 52 54 55
3 56 57 58
3 58 57 59
3 59 57 56
3 56 58 59
3 60 61 62
3 62 61 63
3 63 61 60
3 60 62 63
3 64 65 66
3 66 65 67
3 67 65 64
3 64 66 67
3 68 69 70
3 70 69 71
3 71 69 68
3 68 70 71
3 72 73 74
3 74 73 75
3 75 73 72
3 72 74 75
3 76 77 78
3 78 77 79
3 79 77 76
3 76 78 79
3 80 81 82
3 82 81 83
3 83 81 80
3 80 82 83
3 84 85 86
3 86 85 87
3 87 85 84
3 84 86 87
3 88 89 90
3 90 89 91
3 91 89 88
3 88 90 91
3 92 93 94
3 94 93 95
3 95 93 92
3 92 94 95
3 96 97 98
3 98 97 99
3 99 97 96
3 96 98 99
3 100 101 102
3 102 101 103
3 103 101 100
3 100 102 103
3 104 105 106
3 106 105 107
3 107 105 104
3 104 106 107
3 108 109 110
3 110 109 111
3 111 109 108
3 108 110 111
3 112 113 114
3 114 113 115
3 115 113 112
3 112 114 115
3 116 117 118
3 118 117 119
3 119 117 116
3 116 118 119
3 120 121 122
3 122 121 123
3 123 121 120
3 120 122 123
3 124 125 126
3 126 125 127
3 127 125 124
3 124 126 127
3 128 129 130
3 130 129 131
3 131 129 128
3 128 130 131
3 132 133 134
3 134 133 135
3 135 133 132
3 132 134 135
3 136 137 138
3 138 137 139
3 139 137 136
3 136 138 139
3 140 141 142
3 142 141 143
3 143 141 140
3 140 142 143
3 144 145 146
3 146 145 147
3 147 145 144
3 144 146 147
3 148 149 150
3 150 149 151
3 151 149 148
3 148 150 151
3 152 153 154
3 154 153 155
3 155 153 152
3 152 154 155
3 156 157 158
3 158 157 159
3 159 157 156
3 156 158 159
3 160 161 162
3 162 161 163
3 163 161 160
3 160 162 163
3 164 165 166
3 166 165 167
3 167 165 164
3 164 166 167
3 168 169 170
3 170 169 171
3 171 169 168
3 168 170 171
3 172 173 174
3 174 173 175
3 175 173 172
3 172 174 175
3 176 177 178
3 178 177 179
3 179 177 176
3 176 178 179
3 180 181 182
3 182 181 183
3 183 181 180
3 180 182 183
3 184 185 186
3 186 185 187
3 187 185 184
3 184 186 187
3 188 189 190
3 190 189 191
3 191 189 188
3 188 190 191
3 192 193 194
3 194 193 195
3 195 193 192
3 192 194 195
