ply
format ascii 1.0
comment Created by Blender 2.80 (sub 75) - www.blender.org, source file: 'tree.blend'
element vertex 122
property float x
property float y
property float z
property float nx
property float ny
property float nz
property uchar red
property uchar green
property uchar blue
property uchar alpha
element face 240
property list uchar uint vertex_indices
end_header
1.000000 1.932293 0.000000 0.899899 -0.436018 0.000000 7 82 0 255
0.000000 3.564375 0.000000 0.000000 0.999969 0.000000 7 82 0 255
0.866025 1.932293 0.500000 0.779351 -0.436018 0.449934 7 82 0 255
0.500000 1.932293 0.866025 0.449934 -0.436018 0.779351 7 82 0 255
-0.000000 1.932293 1.000000 0.000000 -0.436018 0.899899 7 82 0 255
-0.500000 1.932293 0.866025 -0.449934 -0.436018 0.779351 7 82 0 255
-0.866025 1.932293 0.500000 -0.779351 -0.436018 0.449934 7 82 0 255
-1.000000 1.932293 0.000000 -0.899899 -0.436018 0.000000 7 82 0 255
-0.866025 1.932293 -0.500000 -0.779351 -0.436018 -0.449934 7 82 0 255
-0.500000 1.932293 -0.866025 -0.449934 -0.436018 -0.779351 7 82 0 255
-0.000000 1.932293 -1.000000 0.000000 -0.436018 -0.899899 7 82 0 255
0.500000 1.932293 -0.866026 0.449934 -0.436018 -0.779351 7 82 0 255
0.866025 1.932293 -0.500001 0.779351 -0.436018 -0.449934 7 82 0 255
-0.400495 1.932293 0.231226 -0.731529 -0.535203 0.422346 7 82 0 255
-1.292055 0.740789 0.000000 -0.911252 -0.411817 0.000000 7 82 0 255
-1.118953 0.740789 0.646028 -0.789148 -0.411817 0.455611 7 82 0 255
-0.231226 1.932293 0.400495 -0.422346 -0.535203 0.731529 7 82 0 255
-0.231226 1.932293 -0.400495 -0.422346 -0.535203 -0.731529 7 82 0 255
-0.400495 1.932293 -0.231226 -0.731529 -0.535203 -0.422346 7 82 0 255
0.400495 1.932293 -0.231226 0.731529 -0.535203 -0.422346 7 82 0 255
0.231226 1.932293 -0.400495 0.422346 -0.535203 -0.731529 7 82 0 255
-0.000000 1.932293 -0.462452 0.000000 -0.535203 -0.844691 7 82 0 255
0.231226 1.932293 0.400495 0.422346 -0.535203 0.731529 7 82 0 255
0.400495 1.932293 0.231226 0.731529 -0.535203 0.422346 7 82 0 255
0.462452 1.932293 0.000000 0.844691 -0.535203 0.000000 7 82 0 255
-0.000000 1.932293 0.462452 0.000000 -0.535203 0.844691 7 82 0 255
-0.462452 1.932293 0.000000 -0.844691 -0.535203 0.000000 7 82 0 255
-0.570492 0.740789 0.329374 -0.759850 -0.479720 0.438704 7 82 0 255
0.000000 0.740789 1.292055 0.000000 -0.411817 0.911252 7 82 0 255
0.646028 0.740789 1.118953 0.455611 -0.411817 0.789148 7 82 0 255
-0.000000 0.740789 -1.292055 0.000000 -0.411817 -0.911252 7 82 0 255
0.646027 0.740789 -1.118953 0.455611 -0.411817 -0.789148 7 82 0 255
1.292055 0.740789 0.000000 0.911252 -0.411817 0.000000 7 82 0 255
-0.646028 0.740789 -1.118952 -0.455611 -0.411817 -0.789148 7 82 0 255
-1.118953 0.740789 -0.646027 -0.789148 -0.411817 -0.455611 7 82 0 255
-0.646028 0.740789 1.118953 -0.455611 -0.411817 0.789148 7 82 0 255
1.118952 0.740789 -0.646028 0.789148 -0.411817 -0.455611 7 82 0 255
1.118953 0.740789 0.646028 0.789148 -0.411817 0.455611 7 82 0 255
-0.000000 0.740789 -0.658747 0.000000 -0.479720 -0.877407 7 82 0 255
-0.810458 -0.346098 -1.403755 -0.465835 -0.363201 -0.806879 7 82 0 255
-0.329374 0.740789 -0.570492 -0.438704 -0.479720 -0.759850 7 82 0 255
0.329374 0.740789 0.570492 0.438704 -0.479720 0.759850 7 82 0 255
0.329373 0.740789 -0.570492 0.438704 -0.479720 -0.759850 7 82 0 255
-0.570492 0.740789 -0.329373 -0.759850 -0.479720 -0.438704 7 82 0 255
-0.658747 0.740789 0.000000 -0.877407 -0.479720 0.000000 7 82 0 255
-0.000000 0.740789 0.658748 0.000000 -0.479720 0.877407 7 82 0 255
0.570492 0.740789 -0.329374 0.759850 -0.479720 -0.438704 7 82 0 255
0.658747 0.740789 0.000000 0.877407 -0.479720 0.000000 7 82 0 255
-0.329374 0.740789 0.570492 -0.438704 -0.479720 0.759850 7 82 0 255
0.570492 0.740789 0.329374 0.759850 -0.479720 0.438704 7 82 0 255
0.000000 -0.346098 1.620917 0.000000 -0.363201 0.931700 7 82 0 255
0.452159 -0.346098 0.783162 0.444624 -0.457350 0.770135 7 82 0 255
0.810459 -0.346098 1.403755 0.465835 -0.363201 0.806879 7 82 0 255
-1.403755 -0.346098 0.810458 -0.806879 -0.363201 0.465835 7 82 0 255
-0.000001 -0.346098 -1.620916 0.000000 -0.363201 -0.931700 7 82 0 255
-1.620917 -0.346098 0.000000 -0.931700 -0.363201 0.000000 7 82 0 255
1.403754 -0.346098 -0.810459 0.806879 -0.363201 -0.465835 7 82 0 255
0.810458 -0.346098 -1.403756 0.465835 -0.363201 -0.806879 7 82 0 255
1.403755 -0.346098 0.810458 0.806879 -0.363201 0.465835 7 82 0 255
1.620917 -0.346098 -0.000000 0.931700 -0.363201 0.000000 7 82 0 255
-1.403755 -0.346098 -0.810458 -0.806879 -0.363201 -0.465835 7 82 0 255
-0.810458 -0.346098 1.403755 -0.465835 -0.363201 0.806879 7 82 0 255
0.000000 -1.452439 1.976457 0.000000 -0.344218 0.938871 7 82 0 255
0.988228 -1.452439 1.711661 0.469436 -0.344218 0.813074 7 82 0 255
0.452158 -0.346098 -0.783162 0.444624 -0.457350 -0.770135 7 82 0 255
-0.000000 -0.346098 -0.904317 0.000000 -0.457350 -0.889279 7 82 0 255
-0.783162 -0.346098 -0.452159 -0.770135 -0.457350 -0.444624 7 82 0 255
-0.904317 -0.346098 0.000000 -0.889279 -0.457350 0.000000 7 82 0 255
0.000000 -0.346098 0.904317 0.000000 -0.457350 0.889279 7 82 0 255
0.904317 -0.346098 -0.000000 0.889279 -0.457350 0.000000 7 82 0 255
-0.452159 -0.346098 0.783162 -0.444624 -0.457350 0.770135 7 82 0 255
0.783161 -0.346098 -0.452159 0.770135 -0.457350 -0.444624 7 82 0 255
0.783162 -0.346098 0.452158 0.770135 -0.457350 0.444624 7 82 0 255
-0.452159 -0.346098 -0.783162 -0.444624 -0.457350 -0.770135 7 82 0 255
-0.783162 -0.346098 0.452159 -0.770135 -0.457350 0.444624 7 82 0 255
-1.976456 -1.452439 0.000000 -0.938871 -0.344218 0.000000 7 82 0 255
-0.721619 -1.452439 0.416627 0.000000 -1.000000 0.000000 7 82 0 255
-1.711661 -1.452439 0.988228 -0.813074 -0.344218 0.469436 7 82 0 255
-0.000001 -1.452439 -1.976456 0.000000 -0.344218 -0.938871 7 82 0 255
-0.988228 -1.452439 1.711661 -0.469436 -0.344218 0.813074 7 82 0 255
1.711661 -1.452439 -0.988229 0.813074 -0.344218 -0.469436 7 82 0 255
0.988227 -1.452439 -1.711662 0.469436 -0.344218 -0.813074 7 82 0 255
1.711661 -1.452439 0.988228 0.813074 -0.344218 0.469436 7 82 0 255
1.976456 -1.452439 -0.000000 0.938871 -0.344218 0.000000 7 82 0 255
-0.988228 -1.452439 -1.711661 -0.469436 -0.344218 -0.813074 7 82 0 255
-1.711662 -1.452439 -0.988228 -0.813074 -0.344218 -0.469436 7 82 0 255
-0.833254 -1.452439 0.000000 0.000000 -1.000000 0.000000 7 82 0 255
-0.391993 -1.452439 0.226317 -0.552263 -0.770257 0.318857 61 37 15 255
0.416627 -1.452439 0.721619 0.000000 -1.000000 0.000000 7 82 0 255
0.416627 -1.452439 -0.721619 0.000000 -1.000000 0.000000 7 82 0 255
-0.000000 -1.452439 -0.833254 0.000000 -0.999969 0.000000 7 82 0 255
-0.721619 -1.452439 -0.416627 0.000000 -1.000000 0.000000 7 82 0 255
-0.000000 -1.452439 0.833254 0.000000 -0.999969 0.000000 7 82 0 255
0.833254 -1.452439 -0.000000 0.000000 -1.000000 0.000000 7 82 0 255
-0.416627 -1.452439 0.721619 0.000000 -1.000000 0.000000 7 82 0 255
0.721619 -1.452439 -0.416627 0.000000 -1.000000 0.000000 7 82 0 255
0.721619 -1.452439 0.416627 0.000000 -1.000000 0.000000 7 82 0 255
-0.416627 -1.452439 -0.721619 0.000000 -1.000000 0.000000 7 82 0 255
-0.000000 -1.452439 -0.452634 0.000000 -0.770257 -0.637715 61 37 15 255
-0.226317 -3.024429 -0.391994 -0.378552 -0.653218 -0.655721 61 37 15 255
-0.226317 -1.452439 -0.391993 -0.318857 -0.770257 -0.552263 61 37 15 255
-0.000000 -1.452439 0.452634 0.000000 -0.770257 0.637715 61 37 15 255
0.226317 -1.452439 0.391993 0.318857 -0.770257 0.552263 61 37 15 255
0.226317 -1.452439 -0.391993 0.318857 -0.770257 -0.552263 61 37 15 255
-0.391993 -1.452439 -0.226317 -0.552263 -0.770257 -0.318857 61 37 15 255
-0.452635 -1.452439 0.000000 -0.637715 -0.770257 0.000000 61 37 15 255
0.452634 -1.452439 -0.000000 0.637715 -0.770257 0.000000 61 37 15 255
-0.226317 -1.452439 0.391993 -0.318857 -0.770257 0.552263 61 37 15 255
0.391993 -1.452439 -0.226317 0.552263 -0.770257 -0.318857 61 37 15 255
0.391993 -1.452439 0.226317 0.552263 -0.770257 0.318857 61 37 15 255
-0.391993 -3.024429 0.226316 -0.655721 -0.653218 0.378552 61 37 15 255
-0.000000 -3.024429 0.452634 0.000000 -0.653218 0.757134 61 37 15 255
0.226317 -3.024429 0.391992 0.378552 -0.653218 0.655721 61 37 15 255
-0.000000 -3.024429 -0.452635 0.000000 -0.653218 -0.757134 61 37 15 255
-0.452635 -3.024429 -0.000001 -0.757134 -0.653218 0.000000 61 37 15 255
0.391993 -3.024429 -0.226318 0.655721 -0.653218 -0.378552 61 37 15 255
0.226317 -3.024429 -0.391994 0.378552 -0.653218 -0.655721 61 37 15 255
0.391993 -3.024429 0.226316 0.655721 -0.653218 0.378552 61 37 15 255
0.452634 -3.024429 -0.000001 0.757134 -0.653218 0.000000 61 37 15 255
-0.391993 -3.024429 -0.226318 -0.655721 -0.653218 -0.378552 61 37 15 255
-0.226317 -3.024429 0.391992 -0.378552 -0.653218 0.655721 61 37 15 255
-0.000000 -3.024429 -0.000001 0.000000 -0.999969 0.000000 61 37 15 255
3 0 1 2
3 2 1 3
3 3 1 4
3 4 1 5
3 5 1 6
3 6 1 7
3 7 1 8
3 8 1 9
3 9 1 10
3 10 1 11
3 11 1 12
3 12 1 0
3 7 13 6
3 13 14 15
3 6 16 5
3 8 17 18
3 0 19 12
3 10 20 21
3 2 22 23
3 2 24 0
3 5 25 4
3 8 26 7
3 9 21 17
3 11 19 20
3 4 22 3
3 14 27 15
3 22 28 29
3 20 30 21
3 18 14 26
3 16 28 25
3 19 31 20
3 23 32 24
3 18 33 34
3 16 15 35
3 24 36 19
3 22 37 23
3 21 33 17
3 38 39 40
3 28 41 29
3 30 42 38
3 14 43 44
3 35 45 28
3 31 46 42
3 37 47 32
3 33 43 34
3 15 48 35
3 36 47 46
3 37 41 49
3 30 40 33
3 50 51 52
3 44 53 27
3 41 50 52
3 42 54 38
3 43 55 44
3 48 50 45
3 42 56 57
3 47 58 59
3 43 39 60
3 27 61 48
3 46 59 56
3 41 58 49
3 51 62 63
3 54 64 65
3 55 66 67
3 61 68 50
3 56 64 57
3 58 69 59
3 39 66 60
3 53 70 61
3 56 69 71
3 58 51 72
3 39 65 73
3 55 74 53
3 75 76 77
3 64 78 65
3 66 75 67
3 68 79 62
3 64 80 81
3 69 82 83
3 66 84 85
3 70 77 79
3 69 80 71
3 51 82 72
3 73 78 84
3 74 75 77
3 86 87 76
3 62 88 63
3 78 89 90
3 75 91 86
3 79 92 62
3 80 89 81
3 82 93 83
3 84 91 85
3 77 94 79
3 80 93 95
3 82 88 96
3 78 97 84
3 98 99 100
3 88 101 102
3 90 103 98
3 86 104 105
3 94 101 92
3 95 103 89
3 96 106 93
3 97 104 91
3 76 107 94
3 95 106 108
3 96 102 109
3 90 100 97
3 105 110 87
3 102 111 112
3 103 113 98
3 104 114 105
3 107 111 101
3 103 115 116
3 106 117 118
3 100 119 104
3 87 120 107
3 108 118 115
3 109 112 117
3 118 117 121
3 117 112 121
3 112 111 121
3 111 120 121
3 120 110 121
3 110 114 121
3 114 119 121
3 119 99 121
3 99 113 121
3 113 116 121
3 116 115 121
3 115 118 121
3 7 26 13
3 13 26 14
3 6 13 16
3 8 9 17
3 0 24 19
3 10 11 20
3 2 3 22
3 2 23 24
3 5 16 25
3 8 18 26
3 9 10 21
3 11 12 19
3 4 25 22
3 14 44 27
3 22 25 28
3 20 31 30
3 18 34 14
3 16 35 28
3 19 36 31
3 23 37 32
3 18 17 33
3 16 13 15
3 24 32 36
3 22 29 37
3 21 30 33
3 38 54 39
3 28 45 41
3 30 31 42
3 14 34 43
3 35 48 45
3 31 36 46
3 37 49 47
3 33 40 43
3 15 27 48
3 36 32 47
3 37 29 41
3 30 38 40
3 50 68 51
3 44 55 53
3 41 45 50
3 42 57 54
3 43 60 55
3 48 61 50
3 42 46 56
3 47 49 58
3 43 40 39
3 27 53 61
3 46 47 59
3 41 52 58
3 51 68 62
3 54 57 64
3 55 60 66
3 61 70 68
3 56 71 64
3 58 72 69
3 39 73 66
3 53 74 70
3 56 59 69
3 58 52 51
3 39 54 65
3 55 67 74
3 75 86 76
3 64 81 78
3 66 85 75
3 68 70 79
3 64 71 80
3 69 72 82
3 66 73 84
3 70 74 77
3 69 83 80
3 51 63 82
3 73 65 78
3 74 67 75
3 86 105 87
3 62 92 88
3 78 81 89
3 75 85 91
3 79 94 92
3 80 95 89
3 82 96 93
3 84 97 91
3 77 76 94
3 80 83 93
3 82 63 88
3 78 90 97
3 98 113 99
3 88 92 101
3 90 89 103
3 86 91 104
3 94 107 101
3 95 108 103
3 96 109 106
3 97 100 104
3 76 87 107
3 95 93 106
3 96 88 102
3 90 98 100
3 105 114 110
3 102 101 111
3 103 116 113
3 104 119 114
3 107 120 111
3 103 108 115
3 106 109 117
3 100 99 119
3 87 110 120
3 108 106 118
3 109 102 112
