ply
format ascii 1.0
comment Created by Blender 2.80 (sub 75) - www.blender.org, source file: 'tree.blend'
element vertex 66
property float x
property float y
property float z
property uchar red
property uchar green
property uchar blue
property uchar alpha
element face 128
property list uchar uint vertex_indices
end_header
-0.246561 0.102129 -1.000000 12 110 0 255
-0.248522 0.000000 -1.000000 110 67 27 255
-0.266875 0.000000 -1.000000 12 110 0 255
-0.382683 0.923880 -1.000000 12 110 0 255
-0.188709 0.188709 -1.000000 12 110 0 255
-0.707107 0.707107 -1.000000 12 110 0 255
0.000000 1.000000 -1.000000 12 110 0 255
0.000000 0.000000 1.584890 12 110 0 255
0.382683 0.923880 -1.000000 12 110 0 255
0.266875 -0.000000 -1.000000 12 110 0 255
0.229605 0.095105 -1.000000 110 67 27 255
0.246561 0.102129 -1.000000 12 110 0 255
-1.000000 0.000000 -1.000000 12 110 0 255
-0.246561 -0.102129 -1.000000 12 110 0 255
-0.923880 -0.382684 -1.000000 12 110 0 255
0.707107 0.707107 -1.000000 12 110 0 255
-0.102129 -0.246561 -1.000000 12 110 0 255
0.000000 -0.248522 -1.000000 110 67 27 255
0.000000 -0.266875 -1.000000 12 110 0 255
-0.382683 -0.923880 -1.000000 12 110 0 255
0.000000 -1.000000 -1.000000 12 110 0 255
0.923880 0.382683 -1.000000 12 110 0 255
-0.188709 -0.188709 -1.000000 12 110 0 255
-0.095105 -0.229605 -1.000000 110 67 27 255
0.707107 -0.707107 -1.000000 12 110 0 255
0.246561 -0.102129 -1.000000 12 110 0 255
0.923880 -0.382684 -1.000000 12 110 0 255
1.000000 -0.000000 -1.000000 12 110 0 255
0.248522 -0.000000 -1.000000 110 67 27 255
0.188709 0.188709 -1.000000 12 110 0 255
-0.229605 0.095105 -1.000000 110 67 27 255
-0.923879 0.382684 -1.000000 12 110 0 255
0.102129 0.246561 -1.000000 12 110 0 255
0.000000 0.248522 -1.000000 110 67 27 255
0.000000 0.266875 -1.000000 12 110 0 255
-0.707107 -0.707107 -1.000000 12 110 0 255
0.382683 -0.923880 -1.000000 12 110 0 255
0.188709 -0.188709 -1.000000 12 110 0 255
0.229605 -0.095105 -1.000000 110 67 27 255
-0.102129 0.246561 -1.000000 12 110 0 255
-0.175732 0.175732 -1.000000 110 67 27 255
0.102129 -0.246561 -1.000000 12 110 0 255
0.175732 -0.175732 -1.000000 110 67 27 255
-0.095105 0.229605 -1.000000 110 67 27 255
0.095105 0.229605 -1.000000 110 67 27 255
-0.175732 -0.175732 -1.000000 110 67 27 255
0.175732 0.175732 -1.000000 110 67 27 255
-0.229605 -0.095105 -1.000000 110 67 27 255
0.095105 -0.229605 -1.000000 110 67 27 255
-0.229605 -0.095105 -1.703627 110 67 27 255
-0.095105 0.229605 -1.703627 110 67 27 255
0.095105 -0.229605 -1.703627 110 67 27 255
0.000000 -0.248522 -1.703627 110 67 27 255
0.248522 -0.000000 -1.703627 110 67 27 255
-0.248522 0.000000 -1.703627 110 67 27 255
0.229605 0.095105 -1.703627 110 67 27 255
0.229605 -0.095105 -1.703627 110 67 27 255
-0.229605 0.095105 -1.703627 110 67 27 255
0.175732 -0.175732 -1.703627 110 67 27 255
-0.175732 0.175732 -1.703627 110 67 27 255
0.000000 0.248522 -1.703627 110 67 27 255
-0.095105 -0.229605 -1.703627 110 67 27 255
0.175732 0.175732 -1.703627 110 67 27 255
0.095105 0.229605 -1.703627 110 67 27 255
-0.175732 -0.175732 -1.703627 110 67 27 255
0.000000 0.000000 -1.703627 110 67 27 255
3 0 1 2
3 3 4 5
3 6 7 8
3 9 10 11
3 12 13 14
3 8 7 15
3 16 17 18
3 19 18 20
3 15 7 21
3 22 23 16
3 24 25 26
3 21 7 27
3 25 28 9
3 21 29 15
3 27 7 26
3 4 30 0
3 31 2 12
3 26 7 24
3 32 33 34
3 35 16 19
3 24 7 36
3 37 38 25
3 36 37 24
3 36 7 20
3 39 40 4
3 27 11 21
3 20 7 19
3 41 42 37
3 6 39 3
3 19 7 35
3 34 43 39
3 5 0 31
3 35 7 14
3 29 44 32
3 14 22 35
3 14 7 12
3 13 45 22
3 20 41 36
3 12 7 31
3 11 46 29
3 8 34 6
3 31 7 5
3 26 9 27
3 2 47 13
3 5 7 3
3 18 48 41
3 1 49 47
3 3 7 6
3 15 32 8
3 33 50 43
3 17 51 48
3 23 52 17
3 38 53 28
3 30 54 1
3 28 55 10
3 42 56 38
3 40 57 30
3 48 58 42
3 43 59 40
3 44 60 33
3 45 61 23
3 10 62 46
3 46 63 44
3 47 64 45
3 60 63 65
3 63 62 65
3 62 55 65
3 55 53 65
3 53 56 65
3 56 58 65
3 58 51 65
3 51 52 65
3 52 61 65
3 61 64 65
3 64 49 65
3 49 54 65
3 54 57 65
3 57 59 65
3 59 50 65
3 50 60 65
3 0 30 1
3 3 39 4
3 9 28 10
3 12 2 13
3 16 23 17
3 19 16 18
3 22 45 23
3 24 37 25
3 25 38 28
3 21 11 29
3 4 40 30
3 31 0 2
3 32 44 33
3 35 22 16
3 37 42 38
3 36 41 37
3 39 43 40
3 27 9 11
3 41 48 42
3 6 34 39
3 34 33 43
3 5 4 0
3 29 46 44
3 14 13 22
3 13 47 45
3 20 18 41
3 11 10 46
3 8 32 34
3 26 25 9
3 2 1 47
3 18 17 48
3 1 54 49
3 15 29 32
3 33 60 50
3 17 52 51
3 23 61 52
3 38 56 53
3 30 57 54
3 28 53 55
3 42 58 56
3 40 59 57
3 48 51 58
3 43 50 59
3 44 63 60
3 45 64 61
3 10 55 62
3 46 62 63
3 47 49 64
